<mxfile host="Electron" modified="2023-06-21T20:13:55.043Z" agent="Mozilla/5.0 (X11; Linux x86_64) AppleWebKit/537.36 (KHTML, like Gecko) draw.io/21.3.7 Chrome/112.0.5615.204 Electron/24.5.0 Safari/537.36" etag="Mfoo4zg-aVb_RwqgAeR6" version="21.3.7" type="device">
  <diagram name="Page-1" id="nsEgBY0O27fQnudqapCM">
    <mxGraphModel dx="1414" dy="1031" grid="1" gridSize="10" guides="1" tooltips="1" connect="1" arrows="1" fold="1" page="1" pageScale="1" pageWidth="1169" pageHeight="827" background="none" math="0" shadow="0">
      <root>
        <mxCell id="0" />
        <mxCell id="1" parent="0" />
        <mxCell id="9dDGHML4WGyRwuXL0oAz-10" value="devel, 192.168.2.146:16443" style="swimlane;whiteSpace=wrap;html=1;startSize=23;fillColor=#ffe6cc;strokeColor=#d79b00;" parent="1" vertex="1">
          <mxGeometry x="45" y="317" width="470" height="492" as="geometry">
            <mxRectangle y="358" width="190" height="30" as="alternateBounds" />
          </mxGeometry>
        </mxCell>
        <mxCell id="9dDGHML4WGyRwuXL0oAz-83" value="&lt;font color=&quot;#3399ff&quot;&gt;ns wordpress&lt;/font&gt;" style="ellipse;whiteSpace=wrap;html=1;fillColor=#d5e8d4;strokeColor=#82b366;shadow=0;opacity=50;" parent="9dDGHML4WGyRwuXL0oAz-10" vertex="1">
          <mxGeometry x="20" y="80" width="330" height="130" as="geometry" />
        </mxCell>
        <mxCell id="9dDGHML4WGyRwuXL0oAz-63" value="&lt;font color=&quot;#3399ff&quot;&gt;ns velero&lt;/font&gt;" style="ellipse;whiteSpace=wrap;html=1;fillColor=#dae8fc;strokeColor=#6c8ebf;shadow=0;opacity=50;" parent="9dDGHML4WGyRwuXL0oAz-10" vertex="1">
          <mxGeometry x="20" y="262" width="330" height="130" as="geometry" />
        </mxCell>
        <mxCell id="9dDGHML4WGyRwuXL0oAz-6" value="/opt/sc-hostpath" style="sketch=0;html=1;dashed=0;whitespace=wrap;fillColor=#2875E2;strokeColor=#ffffff;points=[[0.005,0.63,0],[0.1,0.2,0],[0.9,0.2,0],[0.5,0,0],[0.995,0.63,0],[0.72,0.99,0],[0.5,1,0],[0.28,0.99,0]];verticalLabelPosition=bottom;align=center;verticalAlign=top;shape=mxgraph.kubernetes.icon;prIcon=sc" parent="9dDGHML4WGyRwuXL0oAz-10" vertex="1">
          <mxGeometry x="30" y="412" width="50" height="48" as="geometry" />
        </mxCell>
        <mxCell id="9dDGHML4WGyRwuXL0oAz-7" value="/opt/sc-hostpath-hdd" style="sketch=0;html=1;dashed=0;whitespace=wrap;fillColor=#2875E2;strokeColor=#ffffff;points=[[0.005,0.63,0],[0.1,0.2,0],[0.9,0.2,0],[0.5,0,0],[0.995,0.63,0],[0.72,0.99,0],[0.5,1,0],[0.28,0.99,0]];verticalLabelPosition=bottom;align=center;verticalAlign=top;shape=mxgraph.kubernetes.icon;prIcon=sc" parent="9dDGHML4WGyRwuXL0oAz-10" vertex="1">
          <mxGeometry x="140" y="412" width="50" height="48" as="geometry" />
        </mxCell>
        <mxCell id="9dDGHML4WGyRwuXL0oAz-8" value="wordpress" style="sketch=0;html=1;dashed=0;whitespace=wrap;fillColor=#2875E2;strokeColor=#ffffff;points=[[0.005,0.63,0],[0.1,0.2,0],[0.9,0.2,0],[0.5,0,0],[0.995,0.63,0],[0.72,0.99,0],[0.5,1,0],[0.28,0.99,0]];verticalLabelPosition=bottom;align=center;verticalAlign=top;shape=mxgraph.kubernetes.icon;prIcon=pod" parent="9dDGHML4WGyRwuXL0oAz-10" vertex="1">
          <mxGeometry x="30" y="112" width="50" height="48" as="geometry" />
        </mxCell>
        <mxCell id="9dDGHML4WGyRwuXL0oAz-80" style="edgeStyle=orthogonalEdgeStyle;rounded=0;orthogonalLoop=1;jettySize=auto;html=1;exitX=0.005;exitY=0.63;exitDx=0;exitDy=0;exitPerimeter=0;entryX=0.995;entryY=0.63;entryDx=0;entryDy=0;entryPerimeter=0;" parent="9dDGHML4WGyRwuXL0oAz-10" source="9dDGHML4WGyRwuXL0oAz-51" target="9dDGHML4WGyRwuXL0oAz-8" edge="1">
          <mxGeometry relative="1" as="geometry" />
        </mxCell>
        <mxCell id="9dDGHML4WGyRwuXL0oAz-51" value="wordpress, LB" style="sketch=0;html=1;dashed=0;whitespace=wrap;fillColor=#2875E2;strokeColor=#ffffff;points=[[0.005,0.63,0],[0.1,0.2,0],[0.9,0.2,0],[0.5,0,0],[0.995,0.63,0],[0.72,0.99,0],[0.5,1,0],[0.28,0.99,0]];verticalLabelPosition=bottom;align=center;verticalAlign=top;shape=mxgraph.kubernetes.icon;prIcon=svc" parent="9dDGHML4WGyRwuXL0oAz-10" vertex="1">
          <mxGeometry x="210" y="67" width="50" height="48" as="geometry" />
        </mxCell>
        <mxCell id="9dDGHML4WGyRwuXL0oAz-82" style="edgeStyle=orthogonalEdgeStyle;rounded=0;orthogonalLoop=1;jettySize=auto;html=1;exitX=0.005;exitY=0.63;exitDx=0;exitDy=0;exitPerimeter=0;entryX=0.995;entryY=0.63;entryDx=0;entryDy=0;entryPerimeter=0;" parent="9dDGHML4WGyRwuXL0oAz-10" source="9dDGHML4WGyRwuXL0oAz-53" target="9dDGHML4WGyRwuXL0oAz-61" edge="1">
          <mxGeometry relative="1" as="geometry" />
        </mxCell>
        <mxCell id="9dDGHML4WGyRwuXL0oAz-53" value="mariadb, NP, :3306" style="sketch=0;html=1;dashed=0;whitespace=wrap;fillColor=#2875E2;strokeColor=#ffffff;points=[[0.005,0.63,0],[0.1,0.2,0],[0.9,0.2,0],[0.5,0,0],[0.995,0.63,0],[0.72,0.99,0],[0.5,1,0],[0.28,0.99,0]];verticalLabelPosition=bottom;align=center;verticalAlign=top;shape=mxgraph.kubernetes.icon;prIcon=svc" parent="9dDGHML4WGyRwuXL0oAz-10" vertex="1">
          <mxGeometry x="220" y="142" width="50" height="48" as="geometry" />
        </mxCell>
        <mxCell id="9dDGHML4WGyRwuXL0oAz-81" style="edgeStyle=orthogonalEdgeStyle;rounded=0;orthogonalLoop=1;jettySize=auto;html=1;exitX=0.005;exitY=0.63;exitDx=0;exitDy=0;exitPerimeter=0;entryX=0.995;entryY=0.63;entryDx=0;entryDy=0;entryPerimeter=0;" parent="9dDGHML4WGyRwuXL0oAz-10" source="9dDGHML4WGyRwuXL0oAz-52" target="9dDGHML4WGyRwuXL0oAz-68" edge="1">
          <mxGeometry relative="1" as="geometry">
            <Array as="points">
              <mxPoint x="300" y="302" />
              <mxPoint x="140" y="302" />
              <mxPoint x="140" y="342" />
            </Array>
          </mxGeometry>
        </mxCell>
        <mxCell id="9dDGHML4WGyRwuXL0oAz-52" value="minio, CIP" style="sketch=0;html=1;dashed=0;whitespace=wrap;fillColor=#2875E2;strokeColor=#ffffff;points=[[0.005,0.63,0],[0.1,0.2,0],[0.9,0.2,0],[0.5,0,0],[0.995,0.63,0],[0.72,0.99,0],[0.5,1,0],[0.28,0.99,0]];verticalLabelPosition=bottom;align=center;verticalAlign=top;shape=mxgraph.kubernetes.icon;prIcon=svc" parent="9dDGHML4WGyRwuXL0oAz-10" vertex="1">
          <mxGeometry x="300" y="270" width="50" height="48" as="geometry" />
        </mxCell>
        <mxCell id="9dDGHML4WGyRwuXL0oAz-62" value="velero" style="sketch=0;html=1;dashed=0;whitespace=wrap;fillColor=#2875E2;strokeColor=#ffffff;points=[[0.005,0.63,0],[0.1,0.2,0],[0.9,0.2,0],[0.5,0,0],[0.995,0.63,0],[0.72,0.99,0],[0.5,1,0],[0.28,0.99,0]];verticalLabelPosition=bottom;align=center;verticalAlign=top;shape=mxgraph.kubernetes.icon;prIcon=pod" parent="9dDGHML4WGyRwuXL0oAz-10" vertex="1">
          <mxGeometry x="260" y="344" width="50" height="48" as="geometry" />
        </mxCell>
        <mxCell id="9dDGHML4WGyRwuXL0oAz-61" value="mariadb, slave" style="sketch=0;html=1;dashed=0;whitespace=wrap;fillColor=#2875E2;strokeColor=#ffffff;points=[[0.005,0.63,0],[0.1,0.2,0],[0.9,0.2,0],[0.5,0,0],[0.995,0.63,0],[0.72,0.99,0],[0.5,1,0],[0.28,0.99,0]];verticalLabelPosition=bottom;align=center;verticalAlign=top;shape=mxgraph.kubernetes.icon;prIcon=pod" parent="9dDGHML4WGyRwuXL0oAz-10" vertex="1">
          <mxGeometry x="110" y="162" width="50" height="48" as="geometry" />
        </mxCell>
        <mxCell id="9dDGHML4WGyRwuXL0oAz-86" style="edgeStyle=orthogonalEdgeStyle;rounded=0;orthogonalLoop=1;jettySize=auto;html=1;exitX=0.5;exitY=1;exitDx=0;exitDy=0;exitPerimeter=0;entryX=0.005;entryY=0.63;entryDx=0;entryDy=0;entryPerimeter=0;" parent="9dDGHML4WGyRwuXL0oAz-10" source="9dDGHML4WGyRwuXL0oAz-68" target="9dDGHML4WGyRwuXL0oAz-7" edge="1">
          <mxGeometry relative="1" as="geometry">
            <Array as="points">
              <mxPoint x="45" y="402" />
              <mxPoint x="120" y="402" />
              <mxPoint x="120" y="442" />
            </Array>
          </mxGeometry>
        </mxCell>
        <mxCell id="9dDGHML4WGyRwuXL0oAz-68" value="minio" style="sketch=0;html=1;dashed=0;whitespace=wrap;fillColor=#2875E2;strokeColor=#ffffff;points=[[0.005,0.63,0],[0.1,0.2,0],[0.9,0.2,0],[0.5,0,0],[0.995,0.63,0],[0.72,0.99,0],[0.5,1,0],[0.28,0.99,0]];verticalLabelPosition=bottom;align=center;verticalAlign=top;shape=mxgraph.kubernetes.icon;prIcon=pod" parent="9dDGHML4WGyRwuXL0oAz-10" vertex="1">
          <mxGeometry x="20" y="312" width="50" height="48" as="geometry" />
        </mxCell>
        <mxCell id="9dDGHML4WGyRwuXL0oAz-12" value="prod, 192.168.0.117:16443" style="swimlane;whiteSpace=wrap;html=1;glass=0;fillColor=#f8cecc;strokeColor=#b85450;" parent="1" vertex="1">
          <mxGeometry x="675" y="317" width="470" height="492" as="geometry">
            <mxRectangle x="630" y="358" width="190" height="30" as="alternateBounds" />
          </mxGeometry>
        </mxCell>
        <mxCell id="9dDGHML4WGyRwuXL0oAz-88" value="&lt;font color=&quot;#3399ff&quot;&gt;ns wordpress&lt;/font&gt;" style="ellipse;whiteSpace=wrap;html=1;fillColor=#d5e8d4;strokeColor=#82b366;shadow=0;opacity=50;" parent="9dDGHML4WGyRwuXL0oAz-12" vertex="1">
          <mxGeometry x="80" y="62" width="330" height="130" as="geometry" />
        </mxCell>
        <mxCell id="9dDGHML4WGyRwuXL0oAz-87" value="&lt;font color=&quot;#3399ff&quot;&gt;ns velero&lt;/font&gt;" style="ellipse;whiteSpace=wrap;html=1;fillColor=#dae8fc;strokeColor=#6c8ebf;shadow=0;opacity=50;" parent="9dDGHML4WGyRwuXL0oAz-12" vertex="1">
          <mxGeometry x="90" y="262" width="330" height="130" as="geometry" />
        </mxCell>
        <mxCell id="9dDGHML4WGyRwuXL0oAz-90" style="edgeStyle=orthogonalEdgeStyle;rounded=0;orthogonalLoop=1;jettySize=auto;html=1;exitX=0.9;exitY=0.2;exitDx=0;exitDy=0;exitPerimeter=0;entryX=0.1;entryY=0.2;entryDx=0;entryDy=0;entryPerimeter=0;" parent="9dDGHML4WGyRwuXL0oAz-12" source="9dDGHML4WGyRwuXL0oAz-13" target="9dDGHML4WGyRwuXL0oAz-71" edge="1">
          <mxGeometry relative="1" as="geometry" />
        </mxCell>
        <mxCell id="9dDGHML4WGyRwuXL0oAz-91" style="edgeStyle=orthogonalEdgeStyle;rounded=0;orthogonalLoop=1;jettySize=auto;html=1;exitX=0.995;exitY=0.63;exitDx=0;exitDy=0;exitPerimeter=0;entryX=0.005;entryY=0.63;entryDx=0;entryDy=0;entryPerimeter=0;" parent="9dDGHML4WGyRwuXL0oAz-12" source="9dDGHML4WGyRwuXL0oAz-13" target="9dDGHML4WGyRwuXL0oAz-72" edge="1">
          <mxGeometry relative="1" as="geometry">
            <Array as="points">
              <mxPoint x="60" y="97" />
              <mxPoint x="60" y="282" />
            </Array>
          </mxGeometry>
        </mxCell>
        <mxCell id="9dDGHML4WGyRwuXL0oAz-13" value="&lt;span style=&quot;background-color: rgb(255, 255, 255);&quot;&gt;ingress :443&lt;/span&gt;" style="sketch=0;html=1;dashed=0;whitespace=wrap;fillColor=#2875E2;strokeColor=#ffffff;points=[[0.005,0.63,0],[0.1,0.2,0],[0.9,0.2,0],[0.5,0,0],[0.995,0.63,0],[0.72,0.99,0],[0.5,1,0],[0.28,0.99,0]];verticalLabelPosition=bottom;align=center;verticalAlign=top;shape=mxgraph.kubernetes.icon;prIcon=ing" parent="9dDGHML4WGyRwuXL0oAz-12" vertex="1">
          <mxGeometry x="-20" y="67" width="50" height="48" as="geometry" />
        </mxCell>
        <mxCell id="9dDGHML4WGyRwuXL0oAz-69" value="/opt/sc-hostpath" style="sketch=0;html=1;dashed=0;whitespace=wrap;fillColor=#2875E2;strokeColor=#ffffff;points=[[0.005,0.63,0],[0.1,0.2,0],[0.9,0.2,0],[0.5,0,0],[0.995,0.63,0],[0.72,0.99,0],[0.5,1,0],[0.28,0.99,0]];verticalLabelPosition=bottom;align=center;verticalAlign=top;shape=mxgraph.kubernetes.icon;prIcon=sc" parent="9dDGHML4WGyRwuXL0oAz-12" vertex="1">
          <mxGeometry x="260" y="412" width="50" height="48" as="geometry" />
        </mxCell>
        <mxCell id="9dDGHML4WGyRwuXL0oAz-70" value="/opt/sc-hostpath-hdd" style="sketch=0;html=1;dashed=0;whitespace=wrap;fillColor=#2875E2;strokeColor=#ffffff;points=[[0.005,0.63,0],[0.1,0.2,0],[0.9,0.2,0],[0.5,0,0],[0.995,0.63,0],[0.72,0.99,0],[0.5,1,0],[0.28,0.99,0]];verticalLabelPosition=bottom;align=center;verticalAlign=top;shape=mxgraph.kubernetes.icon;prIcon=sc" parent="9dDGHML4WGyRwuXL0oAz-12" vertex="1">
          <mxGeometry x="380" y="412" width="50" height="48" as="geometry" />
        </mxCell>
        <mxCell id="9dDGHML4WGyRwuXL0oAz-93" style="edgeStyle=orthogonalEdgeStyle;rounded=0;orthogonalLoop=1;jettySize=auto;html=1;exitX=0.995;exitY=0.63;exitDx=0;exitDy=0;exitPerimeter=0;entryX=0.005;entryY=0.63;entryDx=0;entryDy=0;entryPerimeter=0;" parent="9dDGHML4WGyRwuXL0oAz-12" source="9dDGHML4WGyRwuXL0oAz-71" target="9dDGHML4WGyRwuXL0oAz-74" edge="1">
          <mxGeometry relative="1" as="geometry" />
        </mxCell>
        <mxCell id="9dDGHML4WGyRwuXL0oAz-71" value="wordpress, LB" style="sketch=0;html=1;dashed=0;whitespace=wrap;fillColor=#2875E2;strokeColor=#ffffff;points=[[0.005,0.63,0],[0.1,0.2,0],[0.9,0.2,0],[0.5,0,0],[0.995,0.63,0],[0.72,0.99,0],[0.5,1,0],[0.28,0.99,0]];verticalLabelPosition=bottom;align=center;verticalAlign=top;shape=mxgraph.kubernetes.icon;prIcon=svc" parent="9dDGHML4WGyRwuXL0oAz-12" vertex="1">
          <mxGeometry x="90" y="62" width="50" height="48" as="geometry" />
        </mxCell>
        <mxCell id="9dDGHML4WGyRwuXL0oAz-96" style="edgeStyle=orthogonalEdgeStyle;rounded=0;orthogonalLoop=1;jettySize=auto;html=1;exitX=0.995;exitY=0.63;exitDx=0;exitDy=0;exitPerimeter=0;entryX=0.005;entryY=0.63;entryDx=0;entryDy=0;entryPerimeter=0;" parent="9dDGHML4WGyRwuXL0oAz-12" source="9dDGHML4WGyRwuXL0oAz-72" target="9dDGHML4WGyRwuXL0oAz-77" edge="1">
          <mxGeometry relative="1" as="geometry" />
        </mxCell>
        <mxCell id="9dDGHML4WGyRwuXL0oAz-72" value="minio, CIP" style="sketch=0;html=1;dashed=0;whitespace=wrap;fillColor=#2875E2;strokeColor=#ffffff;points=[[0.005,0.63,0],[0.1,0.2,0],[0.9,0.2,0],[0.5,0,0],[0.995,0.63,0],[0.72,0.99,0],[0.5,1,0],[0.28,0.99,0]];verticalLabelPosition=bottom;align=center;verticalAlign=top;shape=mxgraph.kubernetes.icon;prIcon=svc" parent="9dDGHML4WGyRwuXL0oAz-12" vertex="1">
          <mxGeometry x="150" y="252" width="50" height="48" as="geometry" />
        </mxCell>
        <mxCell id="9dDGHML4WGyRwuXL0oAz-94" style="edgeStyle=orthogonalEdgeStyle;rounded=0;orthogonalLoop=1;jettySize=auto;html=1;exitX=0.995;exitY=0.63;exitDx=0;exitDy=0;exitPerimeter=0;entryX=0.005;entryY=0.63;entryDx=0;entryDy=0;entryPerimeter=0;" parent="9dDGHML4WGyRwuXL0oAz-12" source="9dDGHML4WGyRwuXL0oAz-73" target="9dDGHML4WGyRwuXL0oAz-76" edge="1">
          <mxGeometry relative="1" as="geometry" />
        </mxCell>
        <mxCell id="9dDGHML4WGyRwuXL0oAz-73" value="mariadb, NP, :3306" style="sketch=0;html=1;dashed=0;whitespace=wrap;fillColor=#2875E2;strokeColor=#ffffff;points=[[0.005,0.63,0],[0.1,0.2,0],[0.9,0.2,0],[0.5,0,0],[0.995,0.63,0],[0.72,0.99,0],[0.5,1,0],[0.28,0.99,0]];verticalLabelPosition=bottom;align=center;verticalAlign=top;shape=mxgraph.kubernetes.icon;prIcon=svc" parent="9dDGHML4WGyRwuXL0oAz-12" vertex="1">
          <mxGeometry x="160" y="144" width="50" height="48" as="geometry" />
        </mxCell>
        <mxCell id="9dDGHML4WGyRwuXL0oAz-100" style="edgeStyle=orthogonalEdgeStyle;rounded=0;orthogonalLoop=1;jettySize=auto;html=1;exitX=0.995;exitY=0.63;exitDx=0;exitDy=0;exitPerimeter=0;entryX=0.995;entryY=0.63;entryDx=0;entryDy=0;entryPerimeter=0;" parent="9dDGHML4WGyRwuXL0oAz-12" source="9dDGHML4WGyRwuXL0oAz-74" target="9dDGHML4WGyRwuXL0oAz-76" edge="1">
          <mxGeometry relative="1" as="geometry">
            <Array as="points">
              <mxPoint x="365" y="97" />
              <mxPoint x="365" y="193" />
            </Array>
          </mxGeometry>
        </mxCell>
        <mxCell id="9dDGHML4WGyRwuXL0oAz-74" value="wordpress" style="sketch=0;html=1;dashed=0;whitespace=wrap;fillColor=#2875E2;strokeColor=#ffffff;points=[[0.005,0.63,0],[0.1,0.2,0],[0.9,0.2,0],[0.5,0,0],[0.995,0.63,0],[0.72,0.99,0],[0.5,1,0],[0.28,0.99,0]];verticalLabelPosition=bottom;align=center;verticalAlign=top;shape=mxgraph.kubernetes.icon;prIcon=pod" parent="9dDGHML4WGyRwuXL0oAz-12" vertex="1">
          <mxGeometry x="290" y="67" width="50" height="48" as="geometry" />
        </mxCell>
        <mxCell id="9dDGHML4WGyRwuXL0oAz-75" value="velero" style="sketch=0;html=1;dashed=0;whitespace=wrap;fillColor=#2875E2;strokeColor=#ffffff;points=[[0.005,0.63,0],[0.1,0.2,0],[0.9,0.2,0],[0.5,0,0],[0.995,0.63,0],[0.72,0.99,0],[0.5,1,0],[0.28,0.99,0]];verticalLabelPosition=bottom;align=center;verticalAlign=top;shape=mxgraph.kubernetes.icon;prIcon=pod" parent="9dDGHML4WGyRwuXL0oAz-12" vertex="1">
          <mxGeometry x="130" y="344" width="50" height="48" as="geometry" />
        </mxCell>
        <mxCell id="9dDGHML4WGyRwuXL0oAz-76" value="mariadb, master" style="sketch=0;html=1;dashed=0;whitespace=wrap;fillColor=#2875E2;strokeColor=#ffffff;points=[[0.005,0.63,0],[0.1,0.2,0],[0.9,0.2,0],[0.5,0,0],[0.995,0.63,0],[0.72,0.99,0],[0.5,1,0],[0.28,0.99,0]];verticalLabelPosition=bottom;align=center;verticalAlign=top;shape=mxgraph.kubernetes.icon;prIcon=pod" parent="9dDGHML4WGyRwuXL0oAz-12" vertex="1">
          <mxGeometry x="290" y="163" width="50" height="48" as="geometry" />
        </mxCell>
        <mxCell id="9dDGHML4WGyRwuXL0oAz-97" style="edgeStyle=orthogonalEdgeStyle;rounded=0;orthogonalLoop=1;jettySize=auto;html=1;exitX=0.5;exitY=1;exitDx=0;exitDy=0;exitPerimeter=0;" parent="9dDGHML4WGyRwuXL0oAz-12" source="9dDGHML4WGyRwuXL0oAz-77" target="9dDGHML4WGyRwuXL0oAz-70" edge="1">
          <mxGeometry relative="1" as="geometry" />
        </mxCell>
        <mxCell id="9dDGHML4WGyRwuXL0oAz-77" value="minio" style="sketch=0;html=1;dashed=0;whitespace=wrap;fillColor=#2875E2;strokeColor=#ffffff;points=[[0.005,0.63,0],[0.1,0.2,0],[0.9,0.2,0],[0.5,0,0],[0.995,0.63,0],[0.72,0.99,0],[0.5,1,0],[0.28,0.99,0]];verticalLabelPosition=bottom;align=center;verticalAlign=top;shape=mxgraph.kubernetes.icon;prIcon=pod" parent="9dDGHML4WGyRwuXL0oAz-12" vertex="1">
          <mxGeometry x="350" y="272" width="50" height="48" as="geometry" />
        </mxCell>
        <mxCell id="9dDGHML4WGyRwuXL0oAz-21" value="31.28.11.61" style="outlineConnect=0;dashed=0;verticalLabelPosition=bottom;verticalAlign=top;align=center;html=1;shape=mxgraph.aws3.router;fillColor=#F58536;gradientColor=none;" parent="1" vertex="1">
          <mxGeometry x="1055" y="199" width="69" height="72" as="geometry" />
        </mxCell>
        <mxCell id="9dDGHML4WGyRwuXL0oAz-27" value="188.243.216.196" style="outlineConnect=0;dashed=0;verticalLabelPosition=bottom;verticalAlign=top;align=center;html=1;shape=mxgraph.aws3.router;fillColor=#F58536;gradientColor=none;" parent="1" vertex="1">
          <mxGeometry x="55" y="199" width="69" height="72" as="geometry" />
        </mxCell>
        <mxCell id="9dDGHML4WGyRwuXL0oAz-38" style="edgeStyle=orthogonalEdgeStyle;rounded=0;orthogonalLoop=1;jettySize=auto;html=1;exitX=0.5;exitY=1;exitDx=0;exitDy=0;entryX=0.5;entryY=0;entryDx=0;entryDy=0;entryPerimeter=0;" parent="1" source="9dDGHML4WGyRwuXL0oAz-28" target="9dDGHML4WGyRwuXL0oAz-1" edge="1">
          <mxGeometry relative="1" as="geometry">
            <mxPoint x="505" y="279" as="targetPoint" />
          </mxGeometry>
        </mxCell>
        <mxCell id="9dDGHML4WGyRwuXL0oAz-28" value="16443" style="rounded=0;whiteSpace=wrap;html=1;" parent="1" vertex="1">
          <mxGeometry x="145" y="225.5" width="50" height="19" as="geometry" />
        </mxCell>
        <mxCell id="9dDGHML4WGyRwuXL0oAz-40" style="edgeStyle=orthogonalEdgeStyle;rounded=0;orthogonalLoop=1;jettySize=auto;html=1;exitX=0.5;exitY=1;exitDx=0;exitDy=0;entryX=0.5;entryY=0;entryDx=0;entryDy=0;entryPerimeter=0;" parent="1" source="9dDGHML4WGyRwuXL0oAz-32" target="9dDGHML4WGyRwuXL0oAz-16" edge="1">
          <mxGeometry relative="1" as="geometry" />
        </mxCell>
        <mxCell id="9dDGHML4WGyRwuXL0oAz-32" value="16443" style="rounded=0;whiteSpace=wrap;html=1;" parent="1" vertex="1">
          <mxGeometry x="955" y="225.5" width="50" height="19" as="geometry" />
        </mxCell>
        <mxCell id="9dDGHML4WGyRwuXL0oAz-41" style="edgeStyle=orthogonalEdgeStyle;rounded=0;orthogonalLoop=1;jettySize=auto;html=1;exitX=0.5;exitY=1;exitDx=0;exitDy=0;entryX=0.005;entryY=0.63;entryDx=0;entryDy=0;entryPerimeter=0;" parent="1" source="9dDGHML4WGyRwuXL0oAz-33" target="9dDGHML4WGyRwuXL0oAz-9" edge="1">
          <mxGeometry relative="1" as="geometry">
            <Array as="points">
              <mxPoint x="290" y="289" />
              <mxPoint x="555" y="289" />
              <mxPoint x="555" y="414" />
            </Array>
          </mxGeometry>
        </mxCell>
        <mxCell id="9dDGHML4WGyRwuXL0oAz-33" value="8443" style="rounded=0;whiteSpace=wrap;html=1;" parent="1" vertex="1">
          <mxGeometry x="265" y="225.5" width="50" height="19" as="geometry" />
        </mxCell>
        <mxCell id="ufw3Np7E5UCASNNyMPpb-2" style="edgeStyle=orthogonalEdgeStyle;rounded=0;orthogonalLoop=1;jettySize=auto;html=1;exitX=0.5;exitY=1;exitDx=0;exitDy=0;entryX=0.1;entryY=0.2;entryDx=0;entryDy=0;entryPerimeter=0;" edge="1" parent="1" source="9dDGHML4WGyRwuXL0oAz-34" target="9dDGHML4WGyRwuXL0oAz-53">
          <mxGeometry relative="1" as="geometry">
            <Array as="points">
              <mxPoint x="230" y="269" />
              <mxPoint x="175" y="269" />
              <mxPoint x="175" y="469" />
            </Array>
          </mxGeometry>
        </mxCell>
        <mxCell id="9dDGHML4WGyRwuXL0oAz-34" value="30306" style="rounded=0;whiteSpace=wrap;html=1;" parent="1" vertex="1">
          <mxGeometry x="205" y="225.5" width="50" height="19" as="geometry" />
        </mxCell>
        <mxCell id="9dDGHML4WGyRwuXL0oAz-42" style="edgeStyle=orthogonalEdgeStyle;rounded=0;orthogonalLoop=1;jettySize=auto;html=1;exitX=0.5;exitY=1;exitDx=0;exitDy=0;entryX=0.005;entryY=0.63;entryDx=0;entryDy=0;entryPerimeter=0;" parent="1" source="9dDGHML4WGyRwuXL0oAz-36" target="9dDGHML4WGyRwuXL0oAz-13" edge="1">
          <mxGeometry relative="1" as="geometry">
            <Array as="points">
              <mxPoint x="860" y="299" />
              <mxPoint x="635" y="299" />
              <mxPoint x="635" y="414" />
            </Array>
          </mxGeometry>
        </mxCell>
        <mxCell id="9dDGHML4WGyRwuXL0oAz-36" value="8443" style="rounded=0;whiteSpace=wrap;html=1;" parent="1" vertex="1">
          <mxGeometry x="835" y="225.5" width="50" height="19" as="geometry" />
        </mxCell>
        <mxCell id="ufw3Np7E5UCASNNyMPpb-5" style="edgeStyle=orthogonalEdgeStyle;rounded=0;orthogonalLoop=1;jettySize=auto;html=1;exitX=0.5;exitY=1;exitDx=0;exitDy=0;entryX=0.1;entryY=0.2;entryDx=0;entryDy=0;entryPerimeter=0;" edge="1" parent="1" source="9dDGHML4WGyRwuXL0oAz-37" target="9dDGHML4WGyRwuXL0oAz-73">
          <mxGeometry relative="1" as="geometry">
            <Array as="points">
              <mxPoint x="920" y="309" />
              <mxPoint x="825" y="309" />
              <mxPoint x="825" y="471" />
            </Array>
          </mxGeometry>
        </mxCell>
        <mxCell id="9dDGHML4WGyRwuXL0oAz-37" value="30306" style="rounded=0;whiteSpace=wrap;html=1;" parent="1" vertex="1">
          <mxGeometry x="895" y="225.5" width="50" height="19" as="geometry" />
        </mxCell>
        <mxCell id="9dDGHML4WGyRwuXL0oAz-16" value="" style="sketch=0;html=1;dashed=0;whitespace=wrap;fillColor=#2875E2;strokeColor=#ffffff;points=[[0.005,0.63,0],[0.1,0.2,0],[0.9,0.2,0],[0.5,0,0],[0.995,0.63,0],[0.72,0.99,0],[0.5,1,0],[0.28,0.99,0]];verticalLabelPosition=bottom;align=center;verticalAlign=top;shape=mxgraph.kubernetes.icon;prIcon=node" parent="1" vertex="1">
          <mxGeometry x="985" y="297" width="50" height="50" as="geometry" />
        </mxCell>
        <mxCell id="9dDGHML4WGyRwuXL0oAz-1" value="" style="sketch=0;html=1;dashed=0;whitespace=wrap;fillColor=#2875E2;strokeColor=#ffffff;points=[[0.005,0.63,0],[0.1,0.2,0],[0.9,0.2,0],[0.5,0,0],[0.995,0.63,0],[0.72,0.99,0],[0.5,1,0],[0.28,0.99,0]];verticalLabelPosition=bottom;align=center;verticalAlign=top;shape=mxgraph.kubernetes.icon;prIcon=node" parent="1" vertex="1">
          <mxGeometry x="115" y="299" width="50" height="48" as="geometry" />
        </mxCell>
        <mxCell id="9dDGHML4WGyRwuXL0oAz-66" style="edgeStyle=orthogonalEdgeStyle;rounded=0;orthogonalLoop=1;jettySize=auto;html=1;exitX=0.9;exitY=0.2;exitDx=0;exitDy=0;exitPerimeter=0;entryX=0.995;entryY=0.63;entryDx=0;entryDy=0;entryPerimeter=0;" parent="1" source="9dDGHML4WGyRwuXL0oAz-9" target="9dDGHML4WGyRwuXL0oAz-51" edge="1">
          <mxGeometry relative="1" as="geometry" />
        </mxCell>
        <mxCell id="9dDGHML4WGyRwuXL0oAz-67" style="edgeStyle=orthogonalEdgeStyle;rounded=0;orthogonalLoop=1;jettySize=auto;html=1;exitX=0.995;exitY=0.63;exitDx=0;exitDy=0;exitPerimeter=0;" parent="1" source="9dDGHML4WGyRwuXL0oAz-9" edge="1">
          <mxGeometry relative="1" as="geometry">
            <mxPoint x="395" y="619" as="targetPoint" />
            <Array as="points">
              <mxPoint x="435" y="414" />
              <mxPoint x="435" y="619" />
            </Array>
          </mxGeometry>
        </mxCell>
        <mxCell id="9dDGHML4WGyRwuXL0oAz-9" value="&lt;span style=&quot;background-color: rgb(255, 255, 255);&quot;&gt;ingress :443&lt;/span&gt;" style="sketch=0;html=1;dashed=0;whitespace=wrap;fillColor=#2875E2;strokeColor=#ffffff;points=[[0.005,0.63,0],[0.1,0.2,0],[0.9,0.2,0],[0.5,0,0],[0.995,0.63,0],[0.72,0.99,0],[0.5,1,0],[0.28,0.99,0]];verticalLabelPosition=bottom;align=center;verticalAlign=top;shape=mxgraph.kubernetes.icon;prIcon=ing;flipH=1;" parent="1" vertex="1">
          <mxGeometry x="485" y="384" width="50" height="48" as="geometry" />
        </mxCell>
        <mxCell id="9dDGHML4WGyRwuXL0oAz-44" value="DNS" style="swimlane;fontStyle=0;childLayout=stackLayout;horizontal=1;startSize=30;horizontalStack=0;resizeParent=1;resizeParentMax=0;resizeLast=0;collapsible=1;marginBottom=0;whiteSpace=wrap;html=1;" parent="1" vertex="1">
          <mxGeometry x="45" y="39" width="140" height="90" as="geometry">
            <mxRectangle y="80" width="60" height="30" as="alternateBounds" />
          </mxGeometry>
        </mxCell>
        <mxCell id="9dDGHML4WGyRwuXL0oAz-45" value="mariadb-devel" style="text;strokeColor=none;fillColor=none;align=left;verticalAlign=middle;spacingLeft=4;spacingRight=4;overflow=hidden;points=[[0,0.5],[1,0.5]];portConstraint=eastwest;rotatable=0;whiteSpace=wrap;html=1;" parent="9dDGHML4WGyRwuXL0oAz-44" vertex="1">
          <mxGeometry y="30" width="140" height="30" as="geometry" />
        </mxCell>
        <mxCell id="9dDGHML4WGyRwuXL0oAz-46" value="minio-devel" style="text;strokeColor=none;fillColor=none;align=left;verticalAlign=middle;spacingLeft=4;spacingRight=4;overflow=hidden;points=[[0,0.5],[1,0.5]];portConstraint=eastwest;rotatable=0;whiteSpace=wrap;html=1;" parent="9dDGHML4WGyRwuXL0oAz-44" vertex="1">
          <mxGeometry y="60" width="140" height="30" as="geometry" />
        </mxCell>
        <mxCell id="9dDGHML4WGyRwuXL0oAz-48" value="DNS" style="swimlane;fontStyle=0;childLayout=stackLayout;horizontal=1;startSize=30;horizontalStack=0;resizeParent=1;resizeParentMax=0;resizeLast=0;collapsible=1;marginBottom=0;whiteSpace=wrap;html=1;" parent="1" vertex="1">
          <mxGeometry x="1005" y="49" width="140" height="90" as="geometry">
            <mxRectangle y="80" width="60" height="30" as="alternateBounds" />
          </mxGeometry>
        </mxCell>
        <mxCell id="9dDGHML4WGyRwuXL0oAz-49" value="mariadb-prod" style="text;strokeColor=none;fillColor=none;align=left;verticalAlign=middle;spacingLeft=4;spacingRight=4;overflow=hidden;points=[[0,0.5],[1,0.5]];portConstraint=eastwest;rotatable=0;whiteSpace=wrap;html=1;" parent="9dDGHML4WGyRwuXL0oAz-48" vertex="1">
          <mxGeometry y="30" width="140" height="30" as="geometry" />
        </mxCell>
        <mxCell id="9dDGHML4WGyRwuXL0oAz-50" value="minio-prod" style="text;strokeColor=none;fillColor=none;align=left;verticalAlign=middle;spacingLeft=4;spacingRight=4;overflow=hidden;points=[[0,0.5],[1,0.5]];portConstraint=eastwest;rotatable=0;whiteSpace=wrap;html=1;" parent="9dDGHML4WGyRwuXL0oAz-48" vertex="1">
          <mxGeometry y="60" width="140" height="30" as="geometry" />
        </mxCell>
        <mxCell id="9dDGHML4WGyRwuXL0oAz-59" style="edgeStyle=orthogonalEdgeStyle;rounded=0;orthogonalLoop=1;jettySize=auto;html=1;entryX=1;entryY=0.25;entryDx=0;entryDy=0;" parent="1" source="9dDGHML4WGyRwuXL0oAz-58" target="9dDGHML4WGyRwuXL0oAz-33" edge="1">
          <mxGeometry relative="1" as="geometry" />
        </mxCell>
        <mxCell id="9dDGHML4WGyRwuXL0oAz-60" style="edgeStyle=orthogonalEdgeStyle;rounded=0;orthogonalLoop=1;jettySize=auto;html=1;" parent="1" source="9dDGHML4WGyRwuXL0oAz-58" edge="1">
          <mxGeometry relative="1" as="geometry">
            <mxPoint x="835" y="229" as="targetPoint" />
            <Array as="points">
              <mxPoint x="730" y="49" />
              <mxPoint x="730" y="229" />
              <mxPoint x="835" y="229" />
            </Array>
          </mxGeometry>
        </mxCell>
        <mxCell id="9dDGHML4WGyRwuXL0oAz-58" value="Users" style="sketch=0;outlineConnect=0;fontColor=#232F3E;gradientColor=none;strokeColor=#232F3E;fillColor=#ffffff;dashed=0;verticalLabelPosition=bottom;verticalAlign=top;align=center;html=1;fontSize=12;fontStyle=0;aspect=fixed;shape=mxgraph.aws4.resourceIcon;resIcon=mxgraph.aws4.users;" parent="1" vertex="1">
          <mxGeometry x="565" y="19" width="60" height="60" as="geometry" />
        </mxCell>
        <mxCell id="ufw3Np7E5UCASNNyMPpb-1" style="edgeStyle=orthogonalEdgeStyle;rounded=0;orthogonalLoop=1;jettySize=auto;html=1;exitX=0.005;exitY=0.63;exitDx=0;exitDy=0;entryX=0.5;entryY=0;entryDx=0;entryDy=0;exitPerimeter=0;" edge="1" parent="1" source="9dDGHML4WGyRwuXL0oAz-8" target="9dDGHML4WGyRwuXL0oAz-36">
          <mxGeometry relative="1" as="geometry">
            <Array as="points">
              <mxPoint x="75" y="462" />
              <mxPoint x="25" y="462" />
              <mxPoint x="25" y="179" />
              <mxPoint x="860" y="179" />
            </Array>
          </mxGeometry>
        </mxCell>
        <mxCell id="ufw3Np7E5UCASNNyMPpb-3" style="edgeStyle=orthogonalEdgeStyle;rounded=0;orthogonalLoop=1;jettySize=auto;html=1;exitX=0.005;exitY=0.63;exitDx=0;exitDy=0;exitPerimeter=0;entryX=1;entryY=0.75;entryDx=0;entryDy=0;" edge="1" parent="1" source="9dDGHML4WGyRwuXL0oAz-75" target="9dDGHML4WGyRwuXL0oAz-33">
          <mxGeometry relative="1" as="geometry">
            <mxPoint x="585" y="259" as="targetPoint" />
            <Array as="points">
              <mxPoint x="575" y="691" />
              <mxPoint x="575" y="240" />
            </Array>
          </mxGeometry>
        </mxCell>
        <mxCell id="ufw3Np7E5UCASNNyMPpb-4" style="edgeStyle=orthogonalEdgeStyle;rounded=0;orthogonalLoop=1;jettySize=auto;html=1;exitX=0.9;exitY=0.2;exitDx=0;exitDy=0;exitPerimeter=0;entryX=0;entryY=0.75;entryDx=0;entryDy=0;" edge="1" parent="1" source="9dDGHML4WGyRwuXL0oAz-62" target="9dDGHML4WGyRwuXL0oAz-36">
          <mxGeometry relative="1" as="geometry">
            <Array as="points">
              <mxPoint x="355" y="671" />
              <mxPoint x="355" y="679" />
              <mxPoint x="595" y="679" />
              <mxPoint x="595" y="240" />
            </Array>
          </mxGeometry>
        </mxCell>
      </root>
    </mxGraphModel>
  </diagram>
</mxfile>
